<?xml version="1.0" encoding="iso-8859-1"?>
<!-- Uploaded to: SVG Repo, www.svgrepo.com, Generator: SVG Repo Mixer Tools -->
<svg fill="#000000" height="800px" width="800px" version="1.1" id="Layer_1" xmlns="http://www.w3.org/2000/svg" xmlns:xlink="http://www.w3.org/1999/xlink" 
	 viewBox="0 0 432 432" xml:space="preserve">
<g>
	<g>
		<path d="M92,400H60c-2.212,0-4,1.792-4,4v24c0,2.208,1.788,4,4,4h32c2.212,0,4-1.792,4-4v-24C96,401.792,94.212,400,92,400z
			 M88,424H64v-16h24V424z"/>
	</g>
</g>
<g>
	<g>
		<path d="M376,400h-32c-2.212,0-4,1.792-4,4v24c0,2.208,1.788,4,4,4h32c2.212,0,4-1.792,4-4v-24C380,401.792,378.212,400,376,400z
			 M372,424h-24v-16h24V424z"/>
	</g>
</g>
<g>
	<g>
		<path d="M357.032,0H74.812C47.268,0,24,23.092,24,50.428V404c0,2.208,1.788,4,4,4h376c2.212,0,4-1.792,4-4V50.428
			C408,23.092,384.66,0,357.032,0z M400,400H32V50.428C32,27.828,52.004,8,74.812,8h282.22C379.92,8,400,27.828,400,50.428V400z"/>
	</g>
</g>
<g>
	<g>
		<path d="M212,168c-2.212,0-4,1.792-4,4v232c0,2.208,1.788,4,4,4c2.212,0,4-1.792,4-4V172C216,169.792,214.212,168,212,168z"/>
	</g>
</g>
<g>
	<g>
		<path d="M180,260c-2.212,0-4,1.792-4,4v48c0,2.208,1.788,4,4,4c2.212,0,4-1.792,4-4v-48C184,261.792,182.212,260,180,260z"/>
	</g>
</g>
<g>
	<g>
		<path d="M240,260c-2.212,0-4,1.792-4,4v48c0,2.208,1.788,4,4,4c2.212,0,4-1.792,4-4v-48C244,261.792,242.212,260,240,260z"/>
	</g>
</g>
<g>
	<g>
		<path d="M300,168H28c-2.212,0-4,1.792-4,4s1.788,4,4,4h272c2.212,0,4-1.792,4-4S302.212,168,300,168z"/>
	</g>
</g>
<g>
	<g>
		<path d="M372,168h-32c-2.212,0-4,1.792-4,4s1.788,4,4,4h32c2.212,0,4-1.792,4-4S374.212,168,372,168z"/>
	</g>
</g>
<g>
	<g>
		<path d="M300,88H28c-2.212,0-4,1.792-4,4s1.788,4,4,4h272c2.212,0,4-1.792,4-4S302.212,88,300,88z"/>
	</g>
</g>
<g>
	<g>
		<path d="M372,88h-32c-2.212,0-4,1.792-4,4s1.788,4,4,4h32c2.212,0,4-1.792,4-4S374.212,88,372,88z"/>
	</g>
</g>
</svg>